<svg height="59" viewBox="0 0 45 59" width="45" xmlns="http://www.w3.org/2000/svg"><g fill="none" fill-rule="evenodd"><path d="m22.219013 48.9707516c-4.3804471 0-8.3505305-1.8207317-11.2517769-4.7710737l5.1278188-14.7267923c.4818278 1.8407976 1.50601 5.6591534 1.5043652 5.651752l.223274.9959748c.2231096.9713037.4025512 1.7495144.4025512 2.4726261 0 1.0735245-.3946564 2.0304367-1.6218 3.320574l.1984384.5898874c.6322396.3928472 1.7962251.7387369 2.6320018.7777995.2649683 1.2731142 1.7537907 3.2116097 2.7976275 4.1077485 1.0457284-.8961388 2.5351264-2.8346343 2.7997657-4.1077485.8357768-.0390626 2.0000911-.3849523 2.632742-.7777995l.1989318-.5898874c-1.2274726-1.2901373-1.6222934-2.2470495-1.6222934-3.320574 0-.7231117.178537-1.5013224.4024689-2.4726261l.2233562-.9959748c-.0018092.0074014 1.0225375-3.8109544 1.504283-5.651752l5.1705822 14.6571373c-2.9071675 2.9917074-6.9064451 4.8407287-11.3223364 4.8407287m-16.0888049-16.7105181c0-5.6959957 2.74622928-10.7237318 6.9368729-13.7404392-.3967946 4.8810249-3.40692304 13.6015405-5.75956505 20.0156315-.75666454-1.9378376-1.17730785-4.05487-1.17730785-6.2751923m20.2640701-16.1386406c-.0748359 1.1075707-.3174356 2.1663747-.5396406 3.1305237 0 0-.2278793 1.031419-.2335536 1.0537053-.0022204.0068257-2.9116906 11.7027657-3.3889953 13.5271159-.4761534-1.8243502-3.3861992-13.5202902-3.3879262-13.5271159-.0040296-.0222863-.2324024-1.0537053-.2324024-1.0537053-.2239319-.9664517-.4665316-2.028134-.5412853-3.1385008 1.3241013-.3658733 2.7139923-.5634071 4.1485382-.5634071 1.4444965 0 2.8437626.2006588 4.1752652.5713842m11.9132929 16.1386406c0 2.1591378-.3988504 4.2205779-1.11637 6.1148297-2.3710632-6.3885974-5.3822607-14.9887177-5.7899106-19.8329004 4.1730448 3.0189279 6.9062806 8.0356442 6.9062806 13.7180707m1.2829827 12.530072c-.130346-.35987-.2821559-.7708094-.4518112-1.2236897 2.7653905-3.1311816 4.4105459-7.0509358 4.4105459-11.3063823 0-7.3171377-4.8621926-13.6449618-11.9271088-16.6703864.318258-1.4379176.8728657-2.9968061 1.4912895-4.0980445.2402971-.3980281.5107753-.7819936.8009081-1.1351202.0125001-.0130757.0822372-.084951.0822372-.084951l-.0060033-.0072369c.446877-.52993654.8782934-.92023432 1.2223739-1.18890328l-.2919421-.68117078c-1.4199076.62549619-4.413013 2.05107816-6.2526593 3.71416116-.8842145-.8229477-2.5371001-1.664481-3.7600496-2.0516538l-.2314977.5608578c.1533724.1588.1689152.1828133.2578136.3369258l.0094573.0130757.009375.0123356c.7577337 1.0130801 1.1616006 2.040634 1.3435093 3.0523984-1.3192493-.2222049-2.6807685-.3399686-4.0743602-.3399686-1.3861081 0-2.7408016.1165301-4.0529785.3364324.1819087-1.0106953.5857756-2.0370979 1.3436737-3.0488622l.0087172-.0123356.0085527-.0130757c.0901319-.1541125.1054281-.1781258.2578958-.3369258l-.2307576-.5608578c-1.2231962.3871728-2.8765752 1.2287061-3.7608719 2.0516538-1.8387417-1.663083-4.8333274-3.08866497-6.25208364-3.71416116l-.29185985.68117078c.34342258.26866896.77533239.65896674 1.22262059 1.18890328l-.0056744.0072369s.0691615.0718753.082155.084951c.289146.3531266.5602821.7370921.8000857 1.1351202.6169436 1.0992647 1.1708112 2.6543703 1.4896448 4.0901497-7.07486688 3.0220529-11.94594111 9.3543178-11.94594111 16.6782812 0 4.3033085 1.68183312 8.2642636 4.50380286 11.4123039-.15255001.4115972-.29054405.7861877-.41093932 1.1177681-1.51916792 3.3057712-3.67361826 5.16499-4.88242296 6.0089082l.28059335.5851177c5.16721041-.7239341 6.92971822-.1831422 8.07955885-.0011513l1.39046669-3.9934388c3.48792664 2.1648123 7.75579094 3.4384199 12.36576204 3.4384199 4.6473068 0 8.9465857-1.2945781 12.4501374-3.4916273l1.4278024 4.0477975c1.1495939-.1819909 2.9198321-.7239341 8.0875359 0l.2850341-.5851177c-1.2089691-.8439182-3.3629261-2.703137-4.8825874-6.0089082" fill="#0097d7"/><g fill="#c5a459"><path d="m22.2315048.08221254-.9574056 2.9752599h-3.129948l2.5371823 1.85296874-.9478661 2.98216782 2.5257513-1.84737661 2.5422811 1.82245874-.9749221-2.97131252 2.5199947-1.83890617h-3.1293724z"/><path d="m1.72255698 55.3174739h-.40493601v1.9549428h.44177828c.36817597 0 .66258517-.1217933.66258517-1.0627514 0-.7896416-.30172831-.8921914-.69942744-.8921914zm1.56818129 2.2724607c-.32393235.2578959-.73635195.4092123-1.42813133.4092123h-1.86259049v-3.3982058h1.81094553c.35345551 0 .80970753.0193257 1.22220936.2097871.58149929.2681755.83906622.735694.83906622 1.428378 0 .5265649-.1175992.9852018-.58149929 1.3508284zm2.55468238-2.2724607v.6926839h.37549509c.44926186 0 .60362109-.1417769.60362109-.3707253 0-.2438333-.19860285-.3219586-.61102244-.3219586zm1.14104124 2.681673-.53742014-.9505798c-.19868509-.3514819-.31653101-.3950676-.6036211-.3950676v1.3456474h-1.31785124v-3.3982058h1.76703086c1.50913498 0 1.99491016.4047715 1.99491016.9699056 0 .5855289-.46357113.8831454-1.06727446.9510733.17656328.0340462.39029778.1898857.5152161.3657088.16924417.2289484.60370333.8581453.77319421 1.1115181zm4.82224181-1.7209204c0-.8485235-.2502479-1.0531297-.8171089-1.0531297-.596302 0-.8467965.414311-.8467965 1.0627514 0 .8678493.3166132 1.0826528.8615169 1.0826528.5594598 0 .8023885-.2199022.8023885-1.0922745zm-3.13628038.1072373c0-1.2090514 1.00132022-1.8428536 2.35576698-1.8428536 1.7449913 0 2.253135.8819941 2.253135 1.6278855 0 .97558-.4639823 1.887015-2.2970496 1.887015-1.48734215 0-2.31185238-.6529634-2.31185238-1.6720469zm5.26415158 1.6137242v-3.3982058h1.3471277v3.3982058zm5.5950742-2.6766566h-1.1927685v2.6766566h-1.3324072v-2.6766566h-1.192604v-.7215492h3.8723034zm3.8133064.7312286c-.0514805-.1513164-.0886517-.3508239-.0953952-.4778804-.0148027.1270565-.0515627.3124192-.14005.5413675l-.2062509.5560058h.6625852zm.7510724 1.9454034-.2648861-.6530457h-1.2149725l-.2798532.6530457h-1.3838877l1.6492672-3.3982059h1.3688383l1.5537075 3.3982059zm5.4917348-1.048105c0 .2926-.0147204.4239328-.1247538.560611-.21357.2828138-.7881614.5458084-1.8038731.5458084-.8097076 0-1.3692495-.1462178-1.6785436-.4239328-.191366-.1853627-.2505768-.2680933-.2505768-.7215493v-2.31103h1.3252526v2.2185132c0 .3118435.147369.5215483.6109402.5215483.4715481 0 .6040323-.1758231.6040323-.5066634v-2.2333981h1.3175222zm4.3512611-.350791h-.4860219v.6722069h.5004957c.3315804 0 .4709724-.141119.4709724-.3509062 0-.1706422-.0806747-.3213007-.4854462-.3213007zm-.4860219-1.2828182v.5900519h.5225352c.3166133 0 .427469-.1462177.427469-.3219586 0-.175083-.1327308-.2680933-.4421072-.2680933zm.7657107 2.6817553h-2.0835619v-3.3982881h2.2746811c.7436711 0 1.3475389.2097871 1.3475389.833803 0 .3068271-.1915305.6287035-.7586382.7504968.5008245.0879116.9426028.3560049.9426028.7658751 0 .6189172-.5519761 1.0481132-1.7226227 1.0481132zm6.1989008-1.0481461c0 .2926-.0150494.4239328-.1252473.560611-.2137345.2828138-.7879147.5458084-1.8036264.5458084-.8101187 0-1.3695784-.1462178-1.6783791-.4239328-.1919417-.1853627-.2505768-.2680933-.2505768-.7215493v-2.31103h1.3252526v2.2185132c0 .3118435.1472868.5215483.6109402.5215483.4711369 0 .6037033-.1758231.6037033-.5066634v-2.2333981h1.3179335zm4.240356-1.628527h-1.1925218v2.6766566h-1.3326539v-2.6766566h-1.192604v-.7215492h3.8725501z"/></g></g></svg>